#!OML:ASF E:\emotionWalksFemale\Project 1\Capture day 1\Session 1\Female1.ASF
:FULLY-SPECIFIED
:DEGREES
237
root 9.93344 15.3451 18.9435 537.866 15.4852 -177.208
lowerback 9.16476 2.7607 2.50824
upperback -4.87308 4.25878 1.04814
thorax -10.276 1.96417 -1.04812
lowerneck -8.75383 2.37111 -1.78453
upperneck 8.5591 3.07199 4.04652
head 4.31879 1.68947 1.89337
rclavicle -1.55797e-014 7.87684e-015
rhumerus -43.4683 -1.86906 -70.7189
rradius 30.2033
rwrist 26.1963
rhand -2.45701 -57.5493
rfingers 7.12502
rthumb 23.235 -86.1676
lclavicle -1.55797e-014 7.87684e-015
lhumerus -47.9972 16.2589 67.6912
lradius 31.2517
lwrist -21.5303
lhand 2.04892 -34.5269
lfingers 7.12502
lthumb 27.5514 -6.52319
rfemur -5.17583 17.2593 24.6209
rtibia 23.7356
rfoot -14.5333 -22.0902
rtoes -18.7234
lfemur -7.44455 -10.4937 -22.7319
ltibia 30.1323
lfoot -21.9793 28.0785
ltoes -43.4384
238
root 9.93719 15.3706 18.9362 537.761 15.596 -177.588
lowerback 9.02754 2.74868 2.04401
upperback -5.01481 4.1872 1.04665
thorax -10.3861 1.96231 -0.77627
lowerneck -8.77231 2.41695 -1.80281
upperneck 9.39111 3.1061 4.27467
head 4.14362 1.74141 1.7931
rclavicle 8.40486e-015 -1.12313e-014
rhumerus -44.6681 -3.18069 -70.5811
rradius 29.5768
rwrist 27.4084
rhand -2.66685 -57.1726
rfingers 7.12502
rthumb 23.0337 -85.8162
lclavicle 8.40486e-015 -1.12313e-014
lhumerus -49.2159 14.9118 69.6212
lradius 31.597
lwrist -20.6982
lhand 3.40713 -34.1172
lfingers 7.12502
lthumb 28.8495 -6.32769
rfemur -4.87627 17.2781 24.2103
rtibia 23.2279
rfoot -14.5808 -22.3609
rtoes -20.2402
lfemur -6.84886 -10.9854 -23.1737
ltibia 29.1962
lfoot -22.102 28.343
ltoes -44.3363
239
root 9.94275 15.3999 18.9233 537.611 15.4243 -178.125
lowerback 8.62699 2.65228 1.46669
upperback -5.04193 3.96533 0.976495
thorax -10.2144 1.89731 -0.470178
lowerneck -8.86836 2.46886 -1.75297
upperneck 9.81534 3.17251 4.24727
head 4.2884 1.78169 1.78869
rclavicle -2.24005e-014 3.08116e-015
rhumerus -45.6748 -4.39849 -70.5447
rradius 29.0666
rwrist 28.7106
rhand -2.73148 -56.9381
rfingers 7.12502
rthumb 22.9717 -85.5894
lclavicle -2.24005e-014 3.08116e-015
lhumerus -50.2722 13.9004 71.3711
lradius 31.6207
lwrist -20.2503
lhand 3.95657 -34.3655
lfingers 7.12502
lthumb 29.3742 -6.6667
rfemur -4.53373 17.0285 23.6226
rtibia 22.7852
rfoot -14.8359 -22.6998
rtoes -21.8408
lfemur -6.07653 -11.6153 -23.8015
ltibia 27.9618
lfoot -21.6443 28.561
ltoes -45.2852
240
root 9.94887 15.4265 18.9026 537.51 15.4941 -178.709
lowerback 8.21091 2.6166 0.883852
upperback -5.12859 3.83162 0.869691
thorax -10.094 1.8735 -0.217622
lowerneck -9.08555 2.53839 -1.66203
upperneck 10.3436 3.25867 4.20994
head 4.48595 1.83494 1.77992
rclavicle -8.33653e-015 9.93923e-016
rhumerus -46.8191 -4.98549 -70.966
rradius 29.0059
rwrist 29.2942
rhand -2.1211 -57.4766
rfingers 7.12502
rthumb 23.5572 -86.0539
lclavicle -8.33653e-015 9.93923e-016
lhumerus -51.2885 13.1422 72.8674
lradius 31.3212
lwrist -19.9755
lhand 3.70757 -35.0684
lfingers 7.12502
lthumb 29.1365 -7.32824
rfemur -4.25418 17.0904 22.9538
rtibia 22.436
rfoot -15.7778 -22.668
rtoes -21.4128
lfemur -5.27932 -12.3822 -24.5269
ltibia 26.648
lfoot -21.8111 28.9045
ltoes -44.3117
241
root 9.95179 15.4401 18.8768 537.288 14.5089 -179.116
lowerback 7.96222 2.16554 0.619602
upperback -5.19409 3.1866 0.790122
thorax -10.0289 1.58025 -0.0381467
lowerneck -9.36924 2.6399 -1.66864
upperneck 10.8976 3.3964 4.21479
head 4.69908 1.91268 1.80548
rclavicle 1.03617e-014 8.05078e-015
rhumerus -48.0361 -4.95113 -71.7115
rradius 29.3537
rwrist 28.981
rhand -1.66358 -58.1349
rfingers 7.12502
rthumb 23.996 -86.6551
lclavicle 1.03617e-014 8.05078e-015
lhumerus -52.2028 12.6219 74.2473
lradius 31.0618
lwrist -19.5949
lhand 4.19013 -34.7688
lfingers 7.12502
lthumb 29.5972 -7.10939
rfemur -3.55677 16.9718 22.6042
rtibia 22.1746
rfoot -17.3266 -23.1259
rtoes -18.8197
lfemur -4.41508 -13.8319 -25.1305
ltibia 25.4196
lfoot -21.916 29.2036
ltoes -44.0238
242
root 9.9493 15.4428 18.854 537.037 13.1868 -179.417
lowerback 7.64123 1.62727 0.581553
upperback -5.12882 2.44046 0.684314
thorax -9.76029 1.2197 0.00519624
lowerneck -9.52984 2.69314 -1.62711
upperneck 11.0886 3.47707 4.06915
head 4.78585 1.94699 1.76512
rclavicle -5.43676e-014 -1.44119e-014
rhumerus -49.0605 -4.95021 -72.4706
rradius 29.8127
rwrist 28.4157
rhand -1.63771 -58.3881
rfingers 7.12502
rthumb 24.0208 -86.905
lclavicle -5.43676e-014 -1.44119e-014
lhumerus -52.7067 12.2922 75.4334
lradius 30.6608
lwrist -19.4789
lhand 5.13975 -34.0657
lfingers 7.12502
lthumb 30.5033 -6.57074
rfemur -2.7419 16.7235 22.4204
rtibia 21.8988
rfoot -18.4269 -24.0924
rtoes -17.5167
lfemur -3.64691 -15.3586 -25.68
ltibia 24.4609
lfoot -21.7592 29.6689
ltoes -44.8437
243
root 9.95512 15.4465 18.8394 537.04 13.2704 -179.717
lowerback 7.10272 1.63905 0.342115
upperback -5.05243 2.41298 0.588384
thorax -9.36172 1.22176 0.0609343
lowerneck -9.47825 2.67353 -1.55866
upperneck 10.7953 3.45417 3.91508
head 4.69171 1.92244 1.6989
rclavicle -2.0773e-014 -4.77083e-015
rhumerus -49.8648 -5.18173 -73.1741
rradius 30.1729
rwrist 28.2937
rhand -1.54266 -58.3171
rfingers 7.12502
rthumb 24.112 -86.822
lclavicle -2.0773e-014 -4.77083e-015
lhumerus -53.0046 12.06 76.2807
lradius 30.0519
lwrist -20.2729
lhand 5.22575 -34.3847
lfingers 7.12502
lthumb 30.5853 -6.90503
rfemur -2.46585 17.1463 22.1374
rtibia 21.5185
rfoot -18.6851 -24.7536
rtoes -17.869
lfemur -3.25245 -16.0423 -26.1408
ltibia 23.8558
lfoot -22.1307 30.5131
ltoes -44.5614
244
root 9.96139 15.4504 18.8281 537.022 12.9098 -179.76
lowerback 6.73563 1.51158 0.427769
upperback -4.95331 2.2351 0.488194
thorax -9.02755 1.12742 -0.0530191
lowerneck -9.43398 2.6728 -1.46729
upperneck 10.3994 3.44278 3.85813
head 4.56563 1.90973 1.65842
rclavicle 3.16813e-014 3.27995e-015
rhumerus -50.6478 -5.32656 -74.0114
rradius 30.724
rwrist 28.1296
rhand -0.89748 -58.2776
rfingers 7.12502
rthumb 24.7305 -86.6991
lclavicle 3.16813e-014 3.27995e-015
lhumerus -53.3215 11.9741 76.7122
lradius 29.2317
lwrist -22.3621
lhand 3.82 -36.1511
lfingers 7.12502
lthumb 29.2438 -8.42958
rfemur -1.96936 17.5809 22.2154
rtibia 21.0277
rfoot -19.0979 -25.7729
rtoes -16.7485
lfemur -2.9961 -16.8236 -26.3121
ltibia 23.5786
lfoot -22.4114 30.942
ltoes -43.8743
245
root 9.96845 15.4554 18.8213 537.104 12.4196 -179.659
lowerback 6.44305 1.34185 0.61121
upperback -4.90885 2.01966 0.439692
thorax -8.79806 1.01153 -0.167019
lowerneck -9.45913 2.67948 -1.31518
upperneck 10.1016 3.4412 3.72984
head 4.48358 1.90147 1.58986
rclavicle 2.91965e-015 3.97569e-015
rhumerus -51.4998 -5.17039 -75.0421
rradius 31.2853
rwrist 25.8116
rhand -1.98283 -57.7087
rfingers 7.12502
rthumb 23.6899 -86.2689
lclavicle 2.91965e-015 3.97569e-015
lhumerus -53.504 11.5336 77.4192
lradius 29.3044
lwrist -22.2259
lhand 5.75801 -35.658
lfingers 7.12502
lthumb 31.0927 -8.27428
rfemur -1.49368 17.8481 22.4339
rtibia 20.4096
rfoot -19.312 -26.7373
rtoes -16.014
lfemur -3.02044 -17.5715 -26.2763
ltibia 23.6177
lfoot -22.5801 31.3572
ltoes -43.7884
246
root 9.97445 15.46 18.8187 537.27 12.0187 -179.486
lowerback 6.2933 1.19438 0.803532
upperback -4.97038 1.84834 0.455446
thorax -8.77212 0.919861 -0.231727
lowerneck -9.42621 2.68858 -1.2457
upperneck 9.82975 3.4522 3.63065
head 4.39749 1.89861 1.54393
rclavicle 4.65902e-015 1.39149e-015
rhumerus -52.3804 -4.83087 -76.1612
rradius 32.2772
rwrist 23.7316
rhand -1.58165 -59.0021
rfingers 7.12502
rthumb 24.0746 -87.5119
lclavicle 4.65902e-015 1.39149e-015
lhumerus -53.821 11.2046 77.8635
lradius 29.4709
lwrist -22.1234
lhand 6.11548 -35.2108
lfingers 7.12502
lthumb 31.4334 -7.89284
rfemur -1.14788 17.9281 22.6592
rtibia 19.6684
rfoot -18.8945 -27.4979
rtoes -17.0431
lfemur -3.28398 -18.2831 -26.1315
ltibia 23.919
lfoot -22.8829 31.7912
ltoes -44.0445
